<svg xmlns="http://www.w3.org/2000/svg" width="124.411" height="87.538" viewBox="0 0 124.411 87.538">
  <g id="Group_11" data-name="Group 11" transform="translate(-139.412 -181.961)">
    <g id="Group_11499" data-name="Group 11499" transform="translate(139.412 181.961)">
      <g id="Group_11456" data-name="Group 11456" transform="translate(3.548)">
        <g id="Group_11455" data-name="Group 11455">
          <g id="Group_11453" data-name="Group 11453" transform="translate(48.715)">
            <path id="Path_12110" data-name="Path 12110" d="M327.074,316.991a6.869,6.869,0,0,1-3.77-1.023,7.233,7.233,0,0,1-2.681-3.194,6.239,6.239,0,0,0-2.172-2.709,5.557,5.557,0,0,0-2.351-.854,16.633,16.633,0,0,0-2.335-.142c-.687,0-1.394.027-2.077.053-.651.025-1.324.051-1.992.054l-2.414.014q-2.125.014-4.249.021a1.276,1.276,0,0,1-.978-.5c-1.914-2.6-3.491-4.761-4.965-6.789q-1.914-2.634-3.818-5.275l-2.514-3.476q-1.84-2.543-3.683-5.084a1.052,1.052,0,0,1,0-1.3q1.781-2.462,3.558-4.926,2.962-4.1,5.931-8.2c1.923-2.651,3.891-5.338,5.793-7.936l1.928-2.635c.648-.888,1.317-1.806,2.005-2.693a5.89,5.89,0,0,1,3.181-2.1,8.209,8.209,0,0,1,1.715-.24c.758-.039,1.525-.059,2.267-.079.353-.009.706-.018,1.058-.03l.027-.007.113-.027.08-.016h14.884l.026,0c.164.011.328.023.492.035.362.027.7.052,1.048.063s.687.014,1.031.018c.5,0,1.023.01,1.543.039a5.5,5.5,0,0,1,4.351,2.242q1.312,1.793,2.627,3.585,2.1,2.863,4.194,5.73c.811,1.112,1.622,2.249,2.407,3.349q.494.692.99,1.385a1,1,0,0,1,.13.257l.055.137a.7.7,0,0,1-.506.953l-.117.024-.048.012a1.473,1.473,0,0,1-.322.053c-.425.017-.85.037-1.275.057-.982.046-2,.095-3.007.1-3.933.018-8.161.027-12.925.027h-3.274c-1.1,0-2.215-.015-3.294-.029-1.107-.014-2.252-.029-3.375-.029l-.743,0a4.157,4.157,0,0,0-3.547,1.873c-1.7,2.37-3.533,4.907-5.769,7.984l-.133.182a4.14,4.14,0,0,0-.676,1.143,1.343,1.343,0,0,0,.213,1.242c.378.554.788,1.11,1.184,1.647q.269.364.535.729.529.727,1.055,1.457c.825,1.142,1.678,2.323,2.535,3.467l.163.218A9.316,9.316,0,0,0,317,297.845,5.418,5.418,0,0,0,320.281,299c.846,0,1.692.019,2.538.033.9.015,1.823.031,2.732.033q9.2.028,18.4.034h.1c.694,0,1.388-.008,2.083-.017.415,0,.829-.01,1.244-.013h0c.108,0,.2.008.314.018l.138.012.177.014a.7.7,0,0,1,.518,1.111l-.528.735c-.272.38-.533.745-.8,1.109l-1.2,1.661q-1.7,2.341-3.4,4.676-1.805,2.458-3.625,4.906l-1.838,2.483a2.673,2.673,0,0,1-1.932,1.027,17.555,17.555,0,0,1-1.942.1c-.714.011-1.43.014-2.145.017-.455,0-.91,0-1.365.007q-1.241.011-2.483.036Z" transform="translate(-286.05 -257.082)" fill="#003978"/>
            <path id="Path_12111" data-name="Path 12111" d="M328.429,257.522c.522.034,1.044.082,1.567.1.851.027,1.7.008,2.555.056a4.706,4.706,0,0,1,3.748,1.915q3.408,4.659,6.82,9.314c1.143,1.567,2.263,3.151,3.393,4.728a.728.728,0,0,1,.049.118,1.491,1.491,0,0,1-.236.049c-1.417.056-2.835.149-4.252.156q-6.458.03-12.917.027h-3.279c-2.223,0-4.447-.057-6.67-.057l-.747,0a4.971,4.971,0,0,0-4.194,2.208q-2.869,4-5.766,7.98a5.565,5.565,0,0,0-.925,1.554,2.143,2.143,0,0,0,.315,1.939c.8,1.174,1.693,2.289,2.489,3.468.814,1.2,1.691,2.364,2.579,3.515a13.2,13.2,0,0,0,2.4,2.733,6.241,6.241,0,0,0,3.76,1.314c1.757.009,3.514.061,5.272.066q9.2.028,18.4.035h.1c1.113,0,2.226-.022,3.339-.03h.008c.108,0,.217.016.378.028-.429.6-.821,1.15-1.218,1.7-1.534,2.112-3.062,4.229-4.607,6.334-1.813,2.468-3.641,4.924-5.462,7.386a1.916,1.916,0,0,1-1.387.708,16.808,16.808,0,0,1-1.853.1c-1.168.019-2.336.014-3.5.025q-1.247.011-2.492.037l-.179,0a6.12,6.12,0,0,1-3.343-.9,6.473,6.473,0,0,1-2.381-2.855,7.076,7.076,0,0,0-2.456-3.037,6.393,6.393,0,0,0-2.683-.98,17.623,17.623,0,0,0-2.445-.15c-1.358,0-2.716.1-4.074.106-2.22.011-4.44.031-6.66.035h0a.476.476,0,0,1-.329-.178q-2.489-3.386-4.962-6.785-2.8-3.856-5.588-7.722-2.212-3.058-4.428-6.113a.256.256,0,0,1,0-.357q4.747-6.564,9.489-13.129,3.63-5,7.293-9.985c.8-1.092,1.589-2.19,2.418-3.258a5.121,5.121,0,0,1,2.757-1.822,7.355,7.355,0,0,1,1.545-.213c1.113-.057,2.228-.073,3.343-.109a1.463,1.463,0,0,0,.243-.048h14.776m.053-1.606H313.489l-.161.033-.088.02c-.323.01-.647.018-.971.027-.746.02-1.517.04-2.285.08a8.943,8.943,0,0,0-1.884.267,6.765,6.765,0,0,0-3.6,2.388c-.694.894-1.365,1.814-2.014,2.7l-.431.591-1.533,2.095c-1.892,2.585-3.849,5.257-5.764,7.9-1.985,2.736-4,5.522-5.94,8.217q-1.774,2.458-3.549,4.915a1.859,1.859,0,0,0,0,2.242q1.847,2.539,3.684,5.085l.742,1.026,1.738,2.4q1.924,2.662,3.852,5.321c1.488,2.047,3.066,4.206,4.968,6.792a2.084,2.084,0,0,0,1.623.833c1.424,0,2.867-.012,4.262-.021l2.406-.014c.682,0,1.362-.029,2.019-.054.707-.027,1.375-.052,2.047-.052a15.851,15.851,0,0,1,2.223.135,4.771,4.771,0,0,1,2.019.729,5.483,5.483,0,0,1,1.889,2.38,8.008,8.008,0,0,0,2.98,3.533,7.752,7.752,0,0,0,4.2,1.147l.212,0c.8-.017,1.628-.029,2.473-.036.452,0,.9-.006,1.357-.007.706,0,1.436-.006,2.159-.018a18.207,18.207,0,0,0,2.03-.11,3.48,3.48,0,0,0,2.476-1.346q.928-1.256,1.859-2.51c1.184-1.6,2.408-3.249,3.606-4.881,1.14-1.553,2.288-3.137,3.4-4.668l1.214-1.673c.272-.375.542-.751.822-1.143l.4-.561.935-1.3a.7.7,0,0,0-.518-1.112l-1.6-.123-.123-.011c-.108-.01-.231-.022-.378-.022h-.021c-.416,0-.832.009-1.247.013-.683.009-1.389.017-2.079.017h-.1c-5.882-.007-12.148-.015-18.4-.034-.9,0-1.829-.018-2.724-.033-.832-.014-1.693-.029-2.545-.033a4.646,4.646,0,0,1-2.811-1,8.754,8.754,0,0,1-1.643-1.84l-.164-.22c-.852-1.138-1.7-2.315-2.525-3.454q-.528-.731-1.057-1.461c-.177-.243-.356-.486-.535-.729-.411-.557-.8-1.084-1.171-1.628a.541.541,0,0,1-.111-.546,3.646,3.646,0,0,1,.558-.912l.136-.185c2.257-3.106,4.091-5.644,5.771-7.988a3.363,3.363,0,0,1,2.9-1.539l.737,0c1.118,0,2.26.014,3.365.029,1.081.013,2.2.028,3.3.029h3.281c4.773,0,9-.009,12.924-.027,1.026,0,2.052-.053,3.044-.1.422-.02.843-.04,1.265-.057a2.241,2.241,0,0,0,.491-.078l.023-.006,1.05-.223a.7.7,0,0,0,.5-.955l-.409-.994a1.735,1.735,0,0,0-.232-.45l-.99-1.385c-.785-1.1-1.6-2.239-2.41-3.354-1.388-1.9-2.805-3.836-4.175-5.7q-1.324-1.806-2.647-3.612a6.269,6.269,0,0,0-4.953-2.57c-.539-.031-1.069-.035-1.582-.04-.35,0-.681-.007-1.012-.018s-.661-.035-1.014-.061c-.166-.012-.333-.024-.5-.035l-.052,0Z" transform="translate(-284.886 -255.916)" fill="#fff"/>
          </g>
          <g id="Group_11454" data-name="Group 11454">
            <path id="Path_12112" data-name="Path 12112" d="M187.586,317.051c-.309,0-.632-.009-.989-.028-1.455-.077-3.011-.12-4.756-.131q-.987-.005-1.974-.005c-1.492,0-2.984.008-4.476.016l-1.339.007c-.6,0-1.2.015-1.8.028l-.908.018H169.22l1.156-1.641c.182-.26.349-.5.521-.736l.749-1.033q4.831-6.668,9.665-13.335,3.524-4.858,7.052-9.714l4.585-6.315q2.646-3.645,5.295-7.288,2.8-3.84,5.6-7.675l3.6-4.939q1.7-2.338,3.413-4.671a3.833,3.833,0,0,1,2.029-1.513,4.658,4.658,0,0,1,1.217-.129l.254,0c.646-.02,1.292-.033,1.938-.047l1.152-.025.022-.005c.038-.01.077-.02.116-.028l.08-.017,15.547-.03a.7.7,0,0,1,.571,1.116l-.008.011-.014.042a1.408,1.408,0,0,1-.2.413q-1.869,2.582-3.743,5.162l-5.787,7.98-10.3,14.18-2.81,3.876.232,0a9.013,9.013,0,0,1,6.786,3.1,27.646,27.646,0,0,1,2.426,3.165c.188.272.376.544.567.815,1.531,2.168,3.1,4.364,4.621,6.488l.761,1.064c.381.533.768,1.061,1.154,1.589q.319.437.637.873a1.584,1.584,0,0,1,.13.217l.041.078.654,1.189h-3.8q-2.07,0-4.141.008-1.7.009-3.4.028c-1.7.016-3.459.033-5.19.033h-.787c-1.619,0-3.262-.034-4.851-.063-1.235-.022-2.47-.044-3.705-.056l-.684-.009c-.353-.005-.706-.011-1.059-.011a16.423,16.423,0,0,0-1.963.1,5.271,5.271,0,0,0-4.184,2.842c-.106.192-.209.387-.312.581a16.248,16.248,0,0,1-.879,1.523,6.272,6.272,0,0,1-3.9,2.653A10.917,10.917,0,0,1,187.586,317.051Z" transform="translate(-167.671 -257.038)" fill="#003978"/>
            <path id="Path_12113" data-name="Path 12113" d="M230.778,257.522a1.232,1.232,0,0,1-.113.279q-2.49,3.441-4.988,6.878-2.272,3.131-4.542,6.263-2.254,3.107-4.51,6.212-2.893,3.984-5.786,7.968-1.8,2.483-3.6,4.968c-.057.079-.1.164-.18.285.124,0,.224.007.314.007a1.076,1.076,0,0,0,.147-.009,9.69,9.69,0,0,1,1.39-.1,8.2,8.2,0,0,1,6.2,2.843,36.261,36.261,0,0,1,2.926,3.9q2.677,3.79,5.385,7.556c.592.827,1.2,1.645,1.8,2.467.035.049.06.107.116.21h-.593c-2,0-4,0-6,.009-2.861.015-5.722.06-8.582.06h-.791c-2.851-.009-5.7-.093-8.552-.119-.582-.005-1.167-.02-1.751-.02a17.526,17.526,0,0,0-2.057.1,6.054,6.054,0,0,0-4.793,3.252c-.378.685-.716,1.4-1.152,2.042a5.48,5.48,0,0,1-3.421,2.32,10.115,10.115,0,0,1-2.3.239c-.323,0-.648-.011-.975-.029-1.587-.086-3.176-.121-4.765-.13q-.988-.006-1.975-.005c-2.063,0-4.125.015-6.188.025-.762,0-1.523.024-2.285.043-.082,0-.161,0-.247,0h-.382c.29-.41.53-.76.779-1.1q5.205-7.185,10.413-14.367,4.775-6.583,9.555-13.161,3.688-5.078,7.377-10.156,3.972-5.456,7.953-10.9,2.327-3.19,4.657-6.377a3.053,3.053,0,0,1,1.6-1.216,5.4,5.4,0,0,1,1.278-.1c1.041-.032,2.083-.048,3.124-.073a1.373,1.373,0,0,0,.242-.048h15.281m2.359-1.606H215.332l-.162.034-.081.018-1.068.023c-.634.013-1.29.027-1.938.047l-.24,0a5.361,5.361,0,0,0-1.424.159,4.61,4.61,0,0,0-2.459,1.811c-1.144,1.556-2.3,3.142-3.417,4.676l-1.244,1.707-2.386,3.27q-2.786,3.817-5.568,7.636-2.67,3.668-5.333,7.34l-2.045,2.817-2.515,3.463q-3.521,4.849-7.041,9.7-4.711,6.494-9.417,12.993l-1,1.375c-.172.237-.34.477-.522.736l-.269.383-1.785,2.531h3.48l.212,0,.916-.018c.585-.013,1.189-.025,1.777-.028l1.386-.007c1.452-.008,2.954-.016,4.429-.015q.982,0,1.965.005c1.733.01,3.276.052,4.718.129.371.02.709.029,1.032.029a11.708,11.708,0,0,0,2.666-.281,7.049,7.049,0,0,0,4.388-2.985,16.93,16.93,0,0,0,.923-1.6c.1-.19.2-.38.305-.568a4.45,4.45,0,0,1,3.575-2.433,15.716,15.716,0,0,1,1.868-.09c.349,0,.7.005,1.048.011.23,0,.459.007.688.009,1.231.011,2.487.034,3.7.055,1.591.029,3.237.058,4.861.063h.8c1.735,0,3.5-.017,5.2-.033q1.7-.016,3.392-.028c1.38-.007,2.786-.008,4.144-.008h5.153l-1.307-2.379c-.013-.024-.023-.043-.032-.061a2.4,2.4,0,0,0-.192-.32q-.32-.44-.642-.879c-.378-.517-.77-1.052-1.146-1.578l-.749-1.048c-1.522-2.129-3.1-4.329-4.63-6.5q-.284-.4-.563-.809a28.3,28.3,0,0,0-2.5-3.254,10.133,10.133,0,0,0-5.047-3.081.7.7,0,0,1-.391-1.091l1.293-1.782,4.361-6.007,1.424-1.961,1.534-2.112,2.976-4.1,2.394-3.3,2.147-2.962,1.337-1.843q1.827-2.518,3.652-5.036a2.186,2.186,0,0,0,.31-.639l0-.012.858-2.175Z" transform="translate(-165.421 -255.916)" fill="#fff"/>
          </g>
          <path id="Path_12114" data-name="Path 12114" d="M401.237,318.721l-5.3-7.731h.425q11.128,0,22.255.006a.592.592,0,0,1,.412.134c.236.283.2.375-.126.571l-10.751,6.464c-.106.064-.21.132-.347.219l5.372,7.8c-.151.011-.247.026-.343.026H390.325a.458.458,0,0,1-.5-.468c0-.087.118-.2.211-.26q2.506-1.52,5.02-3.027l5.913-3.56C401.046,318.847,401.122,318.795,401.237,318.721Z" transform="translate(-298.317 -288.532)" fill="#8c1726"/>
        </g>
      </g>
      <text id="BATTERY" transform="translate(71.093 82.536)" fill="#003978" font-size="3" font-family="Helvetica"><tspan x="-6.781" y="0">BATTERY</tspan></text>
      <g id="Group_11498" data-name="Group 11498" transform="translate(0 64.045)">
        <g id="Group_11477" data-name="Group 11477" transform="translate(29.3 2.812)">
          <g id="Group_11458" data-name="Group 11458" transform="translate(53.217)">
            <g id="Group_11457" data-name="Group 11457" transform="translate(1.041 0.391)">
              <path id="Path_12115" data-name="Path 12115" d="M371.474,430.957l-1.026-1.724-1.678,1.724h-4.7l5.277-4.609-2.163-4.6h4.54l.7,1.8,2.1-1.8h4.318l-5.041,4.609,2.116,4.6Z" transform="translate(-363.079 -421.373)" fill="#fff"/>
              <path id="Path_12116" data-name="Path 12116" d="M373.217,421.578h3.216l-4.129,3.775-.4.368.228.5,1.758,3.822h-3.648l-.667-1.123-.5-.838-.68.7-1.228,1.262h-3.541l4.314-3.768.425-.371-.24-.51-1.792-3.813h3.7l.415,1.07.383.986.8-.689,1.591-1.367m-.277-.748-1.8,1.548-.6-1.547h-5.385l2.294,4.879-5.815,5.079h5.85l1.448-1.488.885,1.488h5.241l-2.246-4.883,5.55-5.074Z" transform="translate(-361.632 -420.83)" fill="#fff"/>
            </g>
            <path id="Path_12117" data-name="Path 12117" d="M371.572,420.653h4.267l-5.018,4.588,2.11,4.588h-4.408l-1.032-1.735-1.688,1.735h-4.643l5.253-4.588-2.157-4.588h4.5l.7,1.813,2.111-1.813m-8.547-.782.524,1.114,1.906,4.055-4.809,4.2-1.569,1.37h7.056l.23-.237.977-1,.511.859.227.382h6.073l-.51-1.108-1.872-4.07,4.6-4.2,1.486-1.358h-6.571l-.219.189-1.272,1.093-.3-.783-.193-.5h-6.269Z" transform="translate(-359.078 -419.871)" fill="#871429" stroke="#fff" stroke-miterlimit="10" stroke-width="3"/>
          </g>
          <g id="Group_11460" data-name="Group 11460" transform="translate(53.738 0.196)">
            <g id="Group_11459" data-name="Group 11459" transform="translate(0.781 0.293)">
              <path id="Path_12118" data-name="Path 12118" d="M371.908,431l-1.062-1.786L369.108,431h-4.393l5.136-4.486-2.129-4.528h4.32l.725,1.868,2.174-1.868h4.03l-4.908,4.487L376.144,431Z" transform="translate(-363.718 -421.613)" fill="#8c1726"/>
              <path id="Path_12119" data-name="Path 12119" d="M373.632,421.817h2.928l-4,3.653-.4.368.228.5,1.724,3.749h-3.44l-.7-1.184-.5-.838-.681.7-1.288,1.324h-3.239l4.173-3.646.425-.371-.24-.51-1.758-3.74h3.475l.441,1.136.382.986.8-.689,1.668-1.434m-.277-.747-1.878,1.614-.626-1.614h-5.164l2.26,4.806-5.674,4.956h5.547l1.508-1.55.922,1.55h5.032l-2.212-4.809,5.417-4.953Z" transform="translate(-362.271 -421.07)" fill="#fff"/>
            </g>
            <path id="Path_12120" data-name="Path 12120" d="M372.329,420.937H376.6l-5.018,4.588,2.11,4.588H369.28l-1.032-1.735-1.688,1.735h-4.643l5.253-4.588-2.157-4.588h4.5l.7,1.813,2.111-1.813m-8.24-.586.393.836,1.969,4.188-4.919,4.3-1.177,1.028h6.453l.173-.177,1.155-1.187.641,1.078.17.287H374.6l-.382-.831-1.932-4.2,4.7-4.3,1.114-1.019h-5.995l-.165.141-1.482,1.273-.4-1.04-.145-.374h-5.827Z" transform="translate(-360.355 -420.351)" fill="#fff" stroke="#fff" stroke-miterlimit="10" stroke-width="3"/>
          </g>
          <g id="Group_11462" data-name="Group 11462" transform="translate(0 0.031)">
            <g id="Group_11461" data-name="Group 11461" transform="translate(1.013 0.391)">
              <path id="Path_12121" data-name="Path 12121" d="M233.431,431l7.293-6.613-5.209-.094.856-2.472H248.1l-7.363,6.612h5.231l-.76,2.566Z" transform="translate(-232.462 -421.45)" fill="#fff"/>
              <path id="Path_12122" data-name="Path 12122" d="M245.721,421.655l-5.911,5.308-1.452,1.3h5.706l-.539,1.819H232.993l5.876-5.328,1.4-1.268-1.887-.034-3.751-.067.6-1.733h10.491m1.952-.748H234.7l-1.111,3.21,4.781.086-7.312,6.63h13.029l.982-3.314H240.31l7.363-6.612Z" transform="translate(-231.055 -420.907)" fill="#fff"/>
            </g>
            <path id="Path_12123" data-name="Path 12123" d="M245.182,420.73l-7.363,6.613h5.253l-.75,2.532H230.6l7.292-6.612-5.229-.094.844-2.439h11.677m2.04-.782H232.948l-.182.526-.844,2.439-.352,1.018,1.077.019,3.256.058-5.831,5.287-1.5,1.361h14.333l.166-.559.75-2.532.3-1H239.86l5.845-5.249,1.518-1.363Z" transform="translate(-228.572 -419.948)" fill="#871429" stroke="#fff" stroke-miterlimit="10" stroke-width="3"/>
          </g>
          <g id="Group_11464" data-name="Group 11464" transform="translate(0.506 0.227)">
            <g id="Group_11463" data-name="Group 11463" transform="translate(0.76 0.293)">
              <path id="Path_12124" data-name="Path 12124" d="M234.053,431.046l7.288-6.609-5.322-.1.789-2.279h11.409l-7.363,6.612h5.355l-.7,2.371Z" transform="translate(-233.083 -421.689)" fill="#8c1726"/>
              <path id="Path_12125" data-name="Path 12125" d="M245.834,421.894l-5.91,5.308-1.452,1.3h5.83l-.481,1.623H233.614l5.872-5.324,1.4-1.268L239,423.5l-3.863-.069.533-1.541h10.167m1.952-.748H235.134l-1.044,3.018,4.893.087-7.307,6.626h12.7l.924-3.119h-4.88l7.363-6.613Z" transform="translate(-231.676 -421.146)" fill="#fff"/>
            </g>
            <path id="Path_12126" data-name="Path 12126" d="M245.917,421.013l-7.363,6.612h5.253l-.75,2.532H231.332l7.292-6.612-5.229-.094.844-2.439h11.677m1.53-.586H233.823l-.137.395-.844,2.439-.264.763.807.015,3.75.067-6.2,5.618-1.125,1.021h13.681l.124-.42.75-2.533.223-.753h-4.508l6.225-5.59,1.138-1.023Z" transform="translate(-229.813 -420.427)" fill="#fff" stroke="#fff" stroke-miterlimit="10" stroke-width="3"/>
          </g>
          <g id="Group_11466" data-name="Group 11466" transform="translate(15.977 0.031)">
            <g id="Group_11465" data-name="Group 11465" transform="translate(0.393 0.391)">
              <path id="Path_12127" data-name="Path 12127" d="M271.41,431.012a1.688,1.688,0,0,1-1.415-.579,2.726,2.726,0,0,1-.277-2.031l2.161-6.578h3.178l-2.345,6.752,4.513-.046,2.2-6.706h3.178l-2.118,6.494A4.652,4.652,0,0,1,277.806,431h-6.159Q271.523,431.012,271.41,431.012Z" transform="translate(-269.26 -421.45)" fill="#fff"/>
              <path id="Path_12128" data-name="Path 12128" d="M281.548,421.655,279.6,427.64a4.363,4.363,0,0,1-2.395,2.445h-6.1l-.025,0c-.074,0-.145.007-.211.007a1.32,1.32,0,0,1-1.119-.434,2.276,2.276,0,0,1-.213-1.7l2.072-6.307h2.382l-2,5.754-.349,1,1.063-.011,3.714-.038.535-.006.167-.509,2.036-6.195h2.392m1.03-.748h-3.964l-2.2,6.709-3.714.038,2.343-6.747h-3.975l-2.245,6.834-.008.026a3.059,3.059,0,0,0,.345,2.352,2.04,2.04,0,0,0,1.709.723c.084,0,.17,0,.261-.009h6.183l.051-.014a5.025,5.025,0,0,0,2.925-2.89l.008-.019,2.284-7Z" transform="translate(-268.715 -420.907)" fill="#fff"/>
            </g>
            <path id="Path_12129" data-name="Path 12129" d="M281.47,420.73l-2.111,6.472a4.658,4.658,0,0,1-2.673,2.673h-6.144q-.129.009-.248.009c-2.333,0-1.675-2.589-1.675-2.589l2.157-6.566h3.142l-2.345,6.753,4.549-.047,2.2-6.706h3.142m1.077-.782h-4.785l-.177.538-2.029,6.174-2.879.03,1.98-5.7.361-1.038h-4.807l-.177.538-2.157,6.566-.009.025-.007.026a3.4,3.4,0,0,0,.415,2.688,2.41,2.41,0,0,0,2.018.874c.089,0,.181,0,.274-.009h6.223l.1-.029a5.434,5.434,0,0,0,3.177-3.107l.017-.038.013-.039,2.11-6.472.334-1.024Z" transform="translate(-267.752 -419.948)" fill="#871429" stroke="#fff" stroke-miterlimit="10" stroke-width="3"/>
          </g>
          <g id="Group_11468" data-name="Group 11468" transform="translate(16.171 0.227)">
            <g id="Group_11467" data-name="Group 11467" transform="translate(0.295 0.293)">
              <path id="Path_12130" data-name="Path 12130" d="M271.55,431.056a1.6,1.6,0,0,1-1.337-.541,2.618,2.618,0,0,1-.26-1.947l2.138-6.5h2.97l-2.345,6.754,4.722-.049,2.2-6.706h2.972l-2.074,6.362a4.564,4.564,0,0,1-2.609,2.622h-6.147C271.7,431.053,271.625,431.056,271.55,431.056Z" transform="translate(-269.497 -421.689)" fill="#8c1726"/>
              <path id="Path_12131" data-name="Path 12131" d="M281.554,421.894l-1.908,5.853a4.275,4.275,0,0,1-2.319,2.382h-6.088l-.026,0c-.072.005-.142.008-.207.008a1.16,1.16,0,0,1-1.042-.4,2.171,2.171,0,0,1-.2-1.611l2.049-6.237h2.173l-2,5.756-.349,1,1.063-.011,3.923-.04.535-.005.167-.509,2.036-6.194h2.186m1.03-.748h-3.758l-2.2,6.709-3.922.04,2.343-6.749h-3.766l-2.224,6.767-.006.019a2.956,2.956,0,0,0,.327,2.268,1.947,1.947,0,0,0,1.632.685q.124,0,.258-.009h6.173l.039-.011a4.921,4.921,0,0,0,2.862-2.836l.006-.014,2.24-6.871Z" transform="translate(-268.953 -421.146)" fill="#fff"/>
            </g>
            <path id="Path_12132" data-name="Path 12132" d="M281.752,421.013l-2.111,6.472a4.658,4.658,0,0,1-2.673,2.673h-6.144q-.129.009-.248.009c-2.333,0-1.675-2.589-1.675-2.589l2.157-6.566H274.2l-2.345,6.753,4.549-.047,2.2-6.706h3.142m.808-.586h-4.374l-.133.4-2.073,6.307-3.3.034,2.071-5.966.27-.779h-4.391l-.132.4-2.158,6.566-.006.019,0,.02a3.192,3.192,0,0,0,.38,2.521,2.222,2.222,0,0,0,1.864.8c.086,0,.177,0,.268-.009h6.2l.077-.022a5.228,5.228,0,0,0,3.051-3l.013-.028.009-.029,2.111-6.472.25-.768Z" transform="translate(-268.229 -420.427)" fill="#fff" stroke="#fff" stroke-miterlimit="10" stroke-width="3"/>
          </g>
          <g id="Group_11470" data-name="Group 11470" transform="translate(41.532 0)">
            <g id="Group_11469" data-name="Group 11469" transform="translate(0.536 0.391)">
              <path id="Path_12133" data-name="Path 12133" d="M332.994,430.957l1.965-6.121c1.413-3,2.965-3.089,3.137-3.089h8.672l-.761,2.456h-7.552l-.408.951,5.345-.047-.9,2.473-5.3-.047-.317.951,7.784-.047-.808,2.519Z" transform="translate(-332.481 -421.373)" fill="#fff"/>
              <path id="Path_12134" data-name="Path 12134" d="M337.352,421.578h8.164l-.529,1.709h-7.523l-.194.453-.085.2-.451,1.052,1.145-.01,4.233-.037-.628,1.718-4.763-.042-.544,0-.172.516-.066.2-.33.99,1.044-.006,6.747-.041-.567,1.769H332.762l1.8-5.609c1.334-2.821,2.73-2.853,2.789-2.853m0-.748c-.321,0-2,.159-3.476,3.3l-.011.023-2.128,6.631h11.641l1.049-3.27-7.778.047.066-.2,5.291.047,1.179-3.228-5.312.047.085-.2h7.581l.992-3.2Z" transform="translate(-331.737 -420.83)" fill="#fff"/>
            </g>
            <path id="Path_12135" data-name="Path 12135" d="M336.573,420.653h8.649l-.75,2.423h-7.55l-.422.985,5.346-.047-.891,2.438-5.3-.047-.328.985,7.785-.047-.8,2.485h-10.82l1.957-6.1c1.4-2.984,2.931-3.08,3.122-3.08m0-.781h0c-.509,0-2.288.254-3.829,3.528l-.021.046-.016.048-1.957,6.1-.327,1.02h12.462l.174-.543.8-2.486.329-1.027-1.078.007-1.364.008.836-2.288.155-.424h2.313l.17-.55.75-2.423.314-1.013h-9.709Z" transform="translate(-330.423 -419.872)" fill="#871429" stroke="#fff" stroke-miterlimit="10" stroke-width="3"/>
          </g>
          <g id="Group_11472" data-name="Group 11472" transform="translate(41.8 0.196)">
            <g id="Group_11471" data-name="Group 11471" transform="translate(0.402 0.293)">
              <path id="Path_12136" data-name="Path 12136" d="M333.322,431l1.922-5.986c1.392-2.944,2.881-3.028,3.047-3.028h8.539l-.7,2.261h-7.544l-.492,1.147,5.353-.047-.831,2.275-5.3-.047-.383,1.148,7.786-.047L343.973,431Z" transform="translate(-332.809 -421.613)" fill="#8c1726"/>
              <path id="Path_12137" data-name="Path 12137" d="M337.538,421.818h8.04l-.469,1.513h-7.515l-.195.453-.169.395-.451,1.052,1.145-.01,4.241-.037-.555,1.521-4.765-.042-.544,0-.172.516-.131.394-.33.991,1.044-.007,6.749-.041-.5,1.572h-9.865l1.758-5.475c1.27-2.681,2.565-2.788,2.69-2.792m.008-.748c-.311,0-1.933.156-3.388,3.247l-.008.017-2.086,6.5H343.5l.986-3.074-7.78.047.132-.394,5.293.047,1.107-3.03-5.32.046.169-.395h7.573l.932-3.009h-9.047Z" transform="translate(-332.065 -421.07)" fill="#fff"/>
            </g>
            <path id="Path_12138" data-name="Path 12138" d="M336.963,420.937h8.649l-.75,2.423h-7.55l-.422.985,5.346-.047-.891,2.439-5.3-.047-.328.985,7.785-.047-.8,2.485h-10.82l1.957-6.1c1.4-2.984,2.931-3.08,3.122-3.08m0-.586h0c-.341,0-2.122.165-3.652,3.416l-.016.035-.011.036-1.957,6.1-.245.765h12.052l.13-.407.8-2.485.247-.77-.809,0-1.645.01.042-.114.891-2.439.2-.553h2.306l.128-.413.75-2.423.235-.76h-9.445Z" transform="translate(-331.08 -420.351)" fill="#fff" stroke="#fff" stroke-miterlimit="10" stroke-width="3"/>
          </g>
          <g id="Group_11474" data-name="Group 11474" transform="translate(25.002 0.001)">
            <g id="Group_11473" data-name="Group 11473" transform="translate(0.541 0.391)">
              <path id="Path_12139" data-name="Path 12139" d="M292.48,439.4l5.826-17.62h9.011l.033-.006a1.768,1.768,0,0,1,.294-.024,1.308,1.308,0,0,1,1.034.443,2.785,2.785,0,0,1,.255,2.281,4.31,4.31,0,0,1-3.331,3.091l-.492.126,2.007,3.268-4.635.009-2.308-3.635.757-2.27h5.649l-1.006-.683a1.5,1.5,0,0,0-.138-.083l-.084-.044-5.006.046-4.831,15.1Z" transform="translate(-291.963 -421.375)" fill="#fff"/>
              <path id="Path_12140" data-name="Path 12140" d="M306.893,421.579a.942.942,0,0,1,.745.307,2.5,2.5,0,0,1,.178,1.968,3.939,3.939,0,0,1-3.057,2.8l-.984.251.532.865,1.393,2.268-3.762.007-2.1-3.311.616-1.846h6.6l-2.022-1.367a1.915,1.915,0,0,0-.172-.1l-.168-.089-.19,0-4.641.043-.54.005-.165.515-4.665,14.584h-2.246l5.579-16.872H306.6l.066-.012a1.339,1.339,0,0,1,.228-.019m0-.748a2.07,2.07,0,0,0-.36.031h-9.249l-6.073,18.368h3.827l4.831-15.1,4.641-.043a1.167,1.167,0,0,1,.1.062h-4.7l-.9,2.695,2.513,3.959,5.508-.011-2.091-3.4A4.686,4.686,0,0,0,308.55,424a3.108,3.108,0,0,0-.335-2.589,1.671,1.671,0,0,0-1.322-.579Z" transform="translate(-291.211 -420.831)" fill="#fff"/>
            </g>
            <path id="Path_12141" data-name="Path 12141" d="M306.108,420.654c.588,0,1.733.294,1.273,2.7a4.426,4.426,0,0,1-3.846,3.189l2.016,3.283-4.6.009-2.3-3.62.75-2.251h4.549s.844-.376-.141-.844l-5.018.047-4.83,15.1h-3l5.815-17.586h9a1.584,1.584,0,0,1,.322-.031m0-.781h0a2.526,2.526,0,0,0-.393.031h-9.5l-.177.536-5.815,17.587-.339,1.027h4.654l.174-.544,3.626-11.335,1.957,3.084.231.364h.431l4.6-.009,1.394,0-.73-1.188-1.459-2.377a5.022,5.022,0,0,0,3.389-3.535,3.462,3.462,0,0,0-.417-2.916,2.054,2.054,0,0,0-1.622-.721Z" transform="translate(-289.885 -419.873)" fill="#871429" stroke="#fff" stroke-miterlimit="10" stroke-width="3"/>
          </g>
          <g id="Group_11476" data-name="Group 11476" transform="translate(25.272 0.196)">
            <g id="Group_11475" data-name="Group 11475" transform="translate(0.405 0.293)">
              <path id="Path_12142" data-name="Path 12142" d="M292.812,439.443l5.761-17.425h8.952l.035-.007a1.572,1.572,0,0,1,.281-.024,1.179,1.179,0,0,1,.958.408,2.734,2.734,0,0,1,.235,2.2,4.232,4.232,0,0,1-3.382,3.045l-.5.118L307.14,431l-4.407.009-2.253-3.55.72-2.159h4.523l.089-.054a.829.829,0,0,0,.2-.167l.191-.231-.184-.237a1.089,1.089,0,0,0-.367-.274l-.082-.042-5.1.047-4.83,15.1Z" transform="translate(-292.294 -421.614)" fill="#8c1726"/>
              <path id="Path_12143" data-name="Path 12143" d="M307.089,421.819a.822.822,0,0,1,.67.272,2.453,2.453,0,0,1,.157,1.887,3.863,3.863,0,0,1-3.1,2.756l-1.01.236.543.884,1.372,2.234-3.534.007-2.048-3.226.578-1.736h4.358l.179-.108a1.2,1.2,0,0,0,.3-.247l.385-.463-.37-.475a1.439,1.439,0,0,0-.49-.377l-.164-.085-.185,0-4.736.044-.541,0-.165.515-4.665,14.582h-2.04l5.515-16.677h8.716l.069-.013a1.213,1.213,0,0,1,.212-.018m0-.748a1.958,1.958,0,0,0-.351.031h-9.186l-6.009,18.173h3.621l4.831-15.1,4.736-.044a.738.738,0,0,1,.243.172.47.47,0,0,1-.107.086h-4.688l-.862,2.584,2.459,3.874,5.28-.01-2.071-3.37a4.608,4.608,0,0,0,3.664-3.339,3.023,3.023,0,0,0-.314-2.508,1.571,1.571,0,0,0-1.247-.544Z" transform="translate(-291.542 -421.071)" fill="#fff"/>
            </g>
            <path id="Path_12144" data-name="Path 12144" d="M306.5,420.938c.588,0,1.733.294,1.273,2.7a4.426,4.426,0,0,1-3.846,3.189l2.016,3.283-4.6.009-2.3-3.62.75-2.251h4.549s.844-.376-.141-.845l-5.018.047-4.83,15.1h-3l5.815-17.586h9a1.583,1.583,0,0,1,.322-.031m0-.586h0a2.308,2.308,0,0,0-.377.031h-9.373l-.133.4L290.8,438.371l-.254.77h4.24l.13-.408L298.672,427l2.181,3.436.173.273h.323l4.6-.009,1.046,0-.547-.891-1.59-2.589a4.852,4.852,0,0,0,3.495-3.463,3.286,3.286,0,0,0-.376-2.754,1.862,1.862,0,0,0-1.472-.65Z" transform="translate(-290.548 -420.352)" fill="#fff" stroke="#fff" stroke-miterlimit="10" stroke-width="3"/>
          </g>
        </g>
        <g id="Group_11488" data-name="Group 11488" transform="translate(29.3 2.812)">
          <g id="Group_11478" data-name="Group 11478" transform="translate(53.217)">
            <path id="Path_12145" data-name="Path 12145" d="M369.814,430.788l-.885-1.488-1.448,1.488h-5.849l5.815-5.079-2.294-4.879h5.385l.6,1.547,1.8-1.548h5.419l-5.55,5.075,2.246,4.883Z" transform="translate(-360.591 -420.439)" fill="#fff"/>
            <path id="Path_12146" data-name="Path 12146" d="M371.572,420.653h4.267l-5.018,4.588,2.11,4.588h-4.408l-1.032-1.735-1.688,1.735h-4.643l5.253-4.588-2.157-4.588h4.5l.7,1.813,2.111-1.813m-8.547-.782.524,1.114,1.906,4.055-4.809,4.2-1.569,1.37h7.056l.23-.237.977-1,.511.859.227.382h6.073l-.51-1.108-1.872-4.07,4.6-4.2,1.486-1.358h-6.571l-.219.189-1.272,1.093-.3-.783-.193-.5h-6.269Z" transform="translate(-359.078 -419.871)" fill="#871429"/>
          </g>
          <g id="Group_11479" data-name="Group 11479" transform="translate(53.738 0.196)">
            <path id="Path_12147" data-name="Path 12147" d="M370.248,430.832l-.921-1.55-1.508,1.55h-5.548l5.674-4.956-2.26-4.806h5.165l.626,1.614,1.879-1.614h5.131l-5.417,4.953,2.212,4.809Z" transform="translate(-361.49 -420.777)" fill="#8c1726"/>
            <path id="Path_12148" data-name="Path 12148" d="M372.329,420.937H376.6l-5.018,4.588,2.11,4.588H369.28l-1.032-1.735-1.688,1.735h-4.643l5.253-4.588-2.157-4.588h4.5l.7,1.813,2.111-1.813m-8.24-.586.393.836,1.969,4.188-4.919,4.3-1.177,1.028h6.453l.173-.177,1.155-1.187.641,1.078.17.287H374.6l-.382-.831-1.932-4.2,4.7-4.3,1.114-1.019h-5.995l-.165.141-1.482,1.273-.4-1.04-.145-.374h-5.827Z" transform="translate(-360.355 -420.351)" fill="#fff"/>
          </g>
          <g id="Group_11480" data-name="Group 11480" transform="translate(0 0.031)">
            <path id="Path_12149" data-name="Path 12149" d="M231.055,430.833l7.312-6.63-4.781-.086,1.111-3.211h12.976l-7.363,6.612h4.756l-.982,3.314Z" transform="translate(-230.043 -420.516)" fill="#fff"/>
            <path id="Path_12150" data-name="Path 12150" d="M245.182,420.73l-7.363,6.613h5.253l-.75,2.532H230.6l7.292-6.612-5.229-.094.844-2.439h11.677m2.04-.782H232.948l-.182.526-.844,2.439-.352,1.018,1.077.019,3.256.058-5.831,5.287-1.5,1.361h14.333l.166-.559.75-2.532.3-1H239.86l5.845-5.249,1.518-1.363Z" transform="translate(-228.572 -419.948)" fill="#871429"/>
          </g>
          <g id="Group_11481" data-name="Group 11481" transform="translate(0.506 0.227)">
            <path id="Path_12151" data-name="Path 12151" d="M231.676,430.877l7.307-6.626-4.893-.088,1.044-3.018h12.651l-7.363,6.612h4.88l-.924,3.119Z" transform="translate(-230.916 -420.853)" fill="#8c1726"/>
            <path id="Path_12152" data-name="Path 12152" d="M245.917,421.013l-7.363,6.612h5.253l-.75,2.532H231.332l7.292-6.612-5.229-.094.844-2.439h11.677m1.53-.586H233.823l-.137.395-.844,2.439-.264.763.807.015,3.75.067-6.2,5.618-1.125,1.021h13.681l.124-.42.75-2.533.223-.753h-4.508l6.225-5.59,1.138-1.023Z" transform="translate(-229.813 -420.427)" fill="#fff"/>
          </g>
          <g id="Group_11482" data-name="Group 11482" transform="translate(15.977 0.031)">
            <path id="Path_12153" data-name="Path 12153" d="M270.866,430.842a2.04,2.04,0,0,1-1.709-.723,3.059,3.059,0,0,1-.345-2.352l.008-.026,2.245-6.834h3.975l-2.343,6.747,3.714-.038,2.2-6.709h3.964l-2.284,7-.008.019a5.025,5.025,0,0,1-2.925,2.89l-.051.014h-6.183C271.036,430.84,270.949,430.842,270.866,430.842Z" transform="translate(-268.323 -420.516)" fill="#fff"/>
            <path id="Path_12154" data-name="Path 12154" d="M281.47,420.73l-2.111,6.472a4.658,4.658,0,0,1-2.673,2.673h-6.144q-.129.009-.248.009c-2.333,0-1.675-2.589-1.675-2.589l2.157-6.566h3.142l-2.345,6.753,4.549-.047,2.2-6.706h3.142m1.077-.782h-4.785l-.177.538-2.029,6.174-2.879.03,1.98-5.7.361-1.038h-4.807l-.177.538-2.157,6.566-.009.025-.007.026a3.4,3.4,0,0,0,.415,2.688,2.41,2.41,0,0,0,2.018.874c.089,0,.181,0,.274-.009h6.223l.1-.029a5.434,5.434,0,0,0,3.177-3.107l.017-.038.013-.039,2.11-6.472.334-1.024Z" transform="translate(-267.752 -419.948)" fill="#871429"/>
          </g>
          <g id="Group_11483" data-name="Group 11483" transform="translate(16.171 0.227)">
            <path id="Path_12155" data-name="Path 12155" d="M271.006,430.886a1.947,1.947,0,0,1-1.632-.685,2.956,2.956,0,0,1-.327-2.268l.006-.019,2.224-6.767h3.766L272.7,427.9l3.922-.04,2.2-6.709h3.758l-2.24,6.871-.006.014a4.921,4.921,0,0,1-2.862,2.836l-.039.011h-6.173C271.174,430.883,271.089,430.886,271.006,430.886Z" transform="translate(-268.657 -420.853)" fill="#8c1726"/>
            <path id="Path_12156" data-name="Path 12156" d="M281.752,421.013l-2.111,6.472a4.658,4.658,0,0,1-2.673,2.673h-6.144q-.129.009-.248.009c-2.333,0-1.675-2.589-1.675-2.589l2.157-6.566H274.2l-2.345,6.753,4.549-.047,2.2-6.706h3.142m.808-.586h-4.374l-.133.4-2.073,6.307-3.3.034,2.071-5.966.27-.779h-4.391l-.132.4-2.158,6.566-.006.019,0,.02a3.192,3.192,0,0,0,.38,2.521,2.222,2.222,0,0,0,1.864.8c.086,0,.177,0,.268-.009h6.2l.077-.022a5.228,5.228,0,0,0,3.051-3l.013-.028.009-.029,2.111-6.472.25-.768Z" transform="translate(-268.229 -420.427)" fill="#fff"/>
          </g>
          <g id="Group_11484" data-name="Group 11484" transform="translate(41.532 0)">
            <path id="Path_12157" data-name="Path 12157" d="M331.737,430.788l2.128-6.631.011-.023c1.48-3.145,3.155-3.3,3.476-3.3h9.179l-.992,3.2h-7.581l-.085.2,5.312-.047-1.179,3.228-5.291-.047-.066.2,7.778-.047-1.049,3.27Z" transform="translate(-331.201 -420.439)" fill="#fff"/>
            <path id="Path_12158" data-name="Path 12158" d="M336.573,420.653h8.649l-.75,2.423h-7.55l-.422.985,5.346-.047-.891,2.438-5.3-.047-.328.985,7.785-.047-.8,2.485h-10.82l1.957-6.1c1.4-2.984,2.931-3.08,3.122-3.08m0-.781h0c-.509,0-2.288.254-3.829,3.528l-.021.046-.016.048-1.957,6.1-.327,1.02h12.462l.174-.543.8-2.486.329-1.027-1.078.007-1.364.008.836-2.288.155-.424h2.313l.17-.55.75-2.423.314-1.013h-9.709Z" transform="translate(-330.423 -419.872)" fill="#871429"/>
          </g>
          <g id="Group_11485" data-name="Group 11485" transform="translate(41.8 0.196)">
            <path id="Path_12159" data-name="Path 12159" d="M332.065,430.832l2.086-6.5.008-.017c1.455-3.091,3.077-3.247,3.388-3.247h9.047l-.932,3.009h-7.573l-.169.395,5.32-.046-1.107,3.03-5.293-.047-.132.394,7.78-.047-.986,3.074Z" transform="translate(-331.663 -420.777)" fill="#8c1726"/>
            <path id="Path_12160" data-name="Path 12160" d="M336.963,420.937h8.649l-.75,2.423h-7.55l-.422.985,5.346-.047-.891,2.439-5.3-.047-.328.985,7.785-.047-.8,2.485h-10.82l1.957-6.1c1.4-2.984,2.931-3.08,3.122-3.08m0-.586h0c-.341,0-2.122.165-3.652,3.416l-.016.035-.011.036-1.957,6.1-.245.765h12.052l.13-.407.8-2.485.247-.77-.809,0-1.645.01.042-.114.891-2.439.2-.553h2.306l.128-.413.75-2.423.235-.76h-9.445Z" transform="translate(-331.08 -420.351)" fill="#fff"/>
          </g>
          <g id="Group_11486" data-name="Group 11486" transform="translate(25.002 0.001)">
            <path id="Path_12161" data-name="Path 12161" d="M291.211,439.23l6.073-18.368h9.249a2.07,2.07,0,0,1,.36-.031,1.671,1.671,0,0,1,1.322.579A3.108,3.108,0,0,1,308.55,424a4.686,4.686,0,0,1-3.606,3.383l2.091,3.4-5.508.011-2.513-3.959.9-2.695h4.7a1.167,1.167,0,0,0-.1-.062l-4.641.043-4.831,15.1Z" transform="translate(-290.67 -420.44)" fill="#fff"/>
            <path id="Path_12162" data-name="Path 12162" d="M306.108,420.654c.588,0,1.733.294,1.273,2.7a4.426,4.426,0,0,1-3.846,3.189l2.016,3.283-4.6.009-2.3-3.62.75-2.251h4.549s.844-.376-.141-.844l-5.018.047-4.83,15.1h-3l5.815-17.586h9a1.584,1.584,0,0,1,.322-.031m0-.781h0a2.526,2.526,0,0,0-.393.031h-9.5l-.177.536-5.815,17.587-.339,1.027h4.654l.174-.544,3.626-11.335,1.957,3.084.231.364h.431l4.6-.009,1.394,0-.73-1.188-1.459-2.377a5.022,5.022,0,0,0,3.389-3.535,3.462,3.462,0,0,0-.417-2.916,2.054,2.054,0,0,0-1.622-.721Z" transform="translate(-289.885 -419.873)" fill="#871429"/>
          </g>
          <g id="Group_11487" data-name="Group 11487" transform="translate(25.272 0.196)">
            <path id="Path_12163" data-name="Path 12163" d="M291.542,439.274l6.009-18.173h9.186a1.958,1.958,0,0,1,.351-.031,1.571,1.571,0,0,1,1.247.544,3.023,3.023,0,0,1,.314,2.508,4.608,4.608,0,0,1-3.664,3.339l2.071,3.37-5.28.01-2.459-3.874.862-2.584h4.688a.47.47,0,0,0,.107-.086.738.738,0,0,0-.243-.172l-4.736.044-4.831,15.1Z" transform="translate(-291.137 -420.778)" fill="#8c1726"/>
            <path id="Path_12164" data-name="Path 12164" d="M306.5,420.938c.588,0,1.733.294,1.273,2.7a4.426,4.426,0,0,1-3.846,3.189l2.016,3.283-4.6.009-2.3-3.62.75-2.251h4.549s.844-.376-.141-.845l-5.018.047-4.83,15.1h-3l5.815-17.586h9a1.583,1.583,0,0,1,.322-.031m0-.586h0a2.308,2.308,0,0,0-.377.031h-9.373l-.133.4L290.8,438.371l-.254.77h4.24l.13-.408L298.672,427l2.181,3.436.173.273h.323l4.6-.009,1.046,0-.547-.891-1.59-2.589a4.852,4.852,0,0,0,3.495-3.463,3.286,3.286,0,0,0-.376-2.754,1.862,1.862,0,0,0-1.472-.65Z" transform="translate(-290.548 -420.352)" fill="#fff"/>
          </g>
        </g>
        <g id="Group_11497" data-name="Group 11497">
          <g id="Group_11492" data-name="Group 11492" transform="translate(0 0.023)">
            <g id="Group_11489" data-name="Group 11489">
              <path id="Path_12165" data-name="Path 12165" d="M158.651,427.467l7.754-11.895a1.367,1.367,0,0,1,1.145-.62h2.073s1.451-.281,2.109,2.244c0,0,0,.009,0,.013l1.345,10.3a.1.1,0,0,1-.094.107h-3.233a.1.1,0,0,1-.094-.081l-1.357-9.006a.1.1,0,0,0-.173-.038l-2.533,3.863a.1.1,0,0,0,.081.147l3.15-.043a.1.1,0,0,1,.1.081l.473,3.232a.1.1,0,0,1-.1.108l-6-.046a.1.1,0,0,0-.08.043l-1.116,1.7a.1.1,0,0,1-.079.042h-3.291A.1.1,0,0,1,158.651,427.467Z" transform="translate(-157.855 -414.163)" fill="#fff"/>
              <path id="Path_12166" data-name="Path 12166" d="M172.139,426.35l-.01-.07-.051-.395c0-.008-.01-.013-.014-.022a2.264,2.264,0,0,1-.234-1.723l.014-.049-.064-.492-.985-7.547-.008-.037c-.661-2.534-2.111-2.419-2.314-2.39h-2.058a1.56,1.56,0,0,0-1.309.71l-7.753,11.894a.291.291,0,0,0,.244.45h3.291a.291.291,0,0,0,.242-.131l1.086-1.651,5.89.047.225,1.487a.289.289,0,0,0,.287.248h3.234a.285.285,0,0,0,.217-.1A.28.28,0,0,0,172.139,426.35Zm-2.931-.649-.174-1.151c0-.008,0-.015,0-.025l-.473-3.232a.91.91,0,0,0-.039-.16l-.582-3.853a.876.876,0,0,0-1.6-.349l-2.532,3.863a.876.876,0,0,0,.733,1.358h.011l2.536-.035.278,1.845-5.2-.041a.87.87,0,0,0-.738.395l-.913,1.388h-1.653l7.062-10.833a.585.585,0,0,1,.491-.266h2.147l.074-.013c.008,0,.756-.006,1.194,1.634l1.237,9.479Zm-3.387-5.131.84-1.28.19,1.265Zm6.818,5.1v0l-.2-1.526v0l-.065-.5-.135.481-.035.129a1.887,1.887,0,0,0,.194,1.409c.018.029.035.057.055.084a1.621,1.621,0,0,0,.232.27Zm-.107.733a.68.68,0,0,1-.68.67h-3.234a.678.678,0,0,1-.674-.58l-.174-1.159-5.344-.041-.969,1.473a.678.678,0,0,1-.568.307H157.6a.68.68,0,0,1-.57-1.053l7.753-11.894a1.947,1.947,0,0,1,1.636-.887h2.038c.379-.039,2-.035,2.71,2.683l.018.082.865,6.638.064.492.135-.479-.064-.492-.807-6.186-.022-.1c-.735-2.822-2.446-2.869-2.9-2.83h-2.034a2.144,2.144,0,0,0-1.8.975l-7.754,11.894v0a.876.876,0,0,0,.735,1.354h3.291a.876.876,0,0,0,.733-.395l.911-1.383,5.071.039.148.993a.872.872,0,0,0,.868.746h3.234a.876.876,0,0,0,.659-.3.911.911,0,0,0,.205-.428A1.829,1.829,0,0,1,172.532,426.4Zm-.688-2.308-.064-.492-.985-7.547-.008-.037c-.661-2.534-2.111-2.419-2.314-2.39h-2.058a1.56,1.56,0,0,0-1.309.71l-7.753,11.894a.291.291,0,0,0,.244.45h3.291a.291.291,0,0,0,.242-.131l1.086-1.651,5.89.047.225,1.487a.289.289,0,0,0,.287.248h3.234a.285.285,0,0,0,.217-.1.28.28,0,0,0,.071-.228l-.01-.07-.051-.395c0-.008-.01-.013-.014-.022a2.264,2.264,0,0,1-.234-1.723Zm-2.636,1.61-.174-1.151c0-.008,0-.015,0-.025l-.473-3.232a.91.91,0,0,0-.039-.16l-.582-3.853a.876.876,0,0,0-1.6-.349l-2.532,3.863a.876.876,0,0,0,.733,1.358h.011l2.536-.035.278,1.845-5.2-.041a.87.87,0,0,0-.738.395l-.913,1.388h-1.653l7.062-10.833a.585.585,0,0,1,.491-.266h2.147l.074-.013c.008,0,.756-.006,1.194,1.634l1.237,9.479Zm-3.387-5.131.84-1.28.19,1.265Z" transform="translate(-156.72 -413.032)" fill="#871429"/>
            </g>
            <g id="Group_11490" data-name="Group 11490" transform="translate(0.586 0.583)">
              <path id="Path_12167" data-name="Path 12167" d="M158.651,427.467l7.754-11.895a1.367,1.367,0,0,1,1.145-.62h2.073s1.451-.281,2.109,2.244c0,0,0,.009,0,.013l1.345,10.3a.1.1,0,0,1-.094.107h-3.233a.1.1,0,0,1-.094-.081l-1.357-9.006a.1.1,0,0,0-.173-.038l-2.533,3.863a.1.1,0,0,0,.081.147l3.15-.043a.1.1,0,0,1,.1.081l.473,3.232a.1.1,0,0,1-.1.108l-6-.046a.1.1,0,0,0-.08.043l-1.116,1.7a.1.1,0,0,1-.079.042h-3.291A.1.1,0,0,1,158.651,427.467Z" transform="translate(-158.44 -414.746)" fill="#fff"/>
              <path id="Path_12168" data-name="Path 12168" d="M173.091,424.966l-.035.129a1.887,1.887,0,0,0,.194,1.409c.018.029.035.057.055.084Zm-.1,2.23-.01-.071-.051-.395c0-.008-.01-.013-.014-.022a2.264,2.264,0,0,1-.234-1.723l.014-.049-.064-.492-.985-7.547-.008-.037c-.661-2.534-2.111-2.419-2.314-2.39h-2.058a1.56,1.56,0,0,0-1.309.71L158.2,427.074a.291.291,0,0,0,.244.45h3.291a.291.291,0,0,0,.242-.131l1.086-1.651,5.889.047.225,1.487a.289.289,0,0,0,.287.248H172.7a.285.285,0,0,0,.217-.1A.28.28,0,0,0,172.99,427.2Zm-3.1-.453-.2-1.321c0-.006,0-.014,0-.022l-.473-3.232a.674.674,0,0,0-.037-.141l-.582-3.873a.683.683,0,0,0-1.245-.272l-2.532,3.863a.682.682,0,0,0,.58,1.055l2.7-.038.338,2.239-5.426-.043h0a.678.678,0,0,0-.569.307l-.971,1.475h-2.118l7.258-11.136a.782.782,0,0,1,.654-.354h2.073l.022.012.072-.02c.039-.006.944-.1,1.44,1.784l1.268,9.714Zm-3.584-5.127,1.321-2.015.3,1.993Z" transform="translate(-158.157 -414.461)" fill="#fff"/>
            </g>
            <g id="Group_11491" data-name="Group 11491" transform="translate(0.586 0.583)">
              <path id="Path_12169" data-name="Path 12169" d="M158.651,427.467l7.754-11.895a1.367,1.367,0,0,1,1.145-.62h2.073s1.451-.281,2.109,2.244c0,0,0,.009,0,.013l1.345,10.3a.1.1,0,0,1-.094.107h-3.233a.1.1,0,0,1-.094-.081l-1.357-9.006a.1.1,0,0,0-.173-.038l-2.533,3.863a.1.1,0,0,0,.081.147l3.15-.043a.1.1,0,0,1,.1.081l.473,3.232a.1.1,0,0,1-.1.108l-6-.046a.1.1,0,0,0-.08.043l-1.116,1.7a.1.1,0,0,1-.079.042h-3.291A.1.1,0,0,1,158.651,427.467Z" transform="translate(-158.44 -414.746)" fill="#003978"/>
              <path id="Path_12170" data-name="Path 12170" d="M172.99,427.2l-.01-.071-.051-.395c0-.008-.01-.013-.014-.022a2.264,2.264,0,0,1-.234-1.723l.014-.049-.064-.492-.985-7.547-.008-.037c-.661-2.534-2.111-2.419-2.314-2.39h-2.058a1.56,1.56,0,0,0-1.309.71L158.2,427.074a.291.291,0,0,0,.244.45h3.291a.291.291,0,0,0,.242-.131l1.086-1.651,5.889.047.225,1.487a.289.289,0,0,0,.287.248H172.7a.285.285,0,0,0,.217-.1A.28.28,0,0,0,172.99,427.2Zm-3.436-.063-.25-1.661c0-.006,0-.012,0-.016l-.473-3.232a.24.24,0,0,0-.029-.09l-.59-3.922a.29.29,0,0,0-.529-.115l-2.532,3.863a.288.288,0,0,0-.014.3.3.3,0,0,0,.256.15h0l3.046-.043.457,3.029-5.883-.045h0a.287.287,0,0,0-.242.131l-1.087,1.651h-3.05l7.652-11.74a1.17,1.17,0,0,1,.981-.531h2.073l.035,0c.053-.008,1.286-.2,1.881,2.091l1.331,10.184Zm-1.172-5.155-2.8.037,2.284-3.484Z" transform="translate(-158.157 -414.461)" fill="#8c1726"/>
            </g>
          </g>
          <g id="Group_11496" data-name="Group 11496" transform="translate(0.195)">
            <g id="Group_11493" data-name="Group 11493" transform="translate(14.645)">
              <path id="Path_12171" data-name="Path 12171" d="M208.551,414.894h-8.314a3.542,3.542,0,0,0-2.808,2.112.082.082,0,0,0,0,.014l-2.343,8.387s-.515,1.731,1.727,2.156l.015,0c.271,0,8.062.138,8.2,0s.8-2.761.955-3.353a.094.094,0,0,0-.093-.117h-7.162a.1.1,0,0,1-.091-.121l1.541-5.484a.094.094,0,0,1,.093-.069l7.173.092a.1.1,0,0,0,.091-.066l1.111-3.429A.1.1,0,0,0,208.551,414.894Z" transform="translate(-194.249 -414.112)" fill="#fff"/>
              <path id="Path_12172" data-name="Path 12172" d="M193.631,425.851c0-.008-.01-.013-.014-.022a2.264,2.264,0,0,1-.234-1.723l.014-.049-.064-.492-.135.477v.008a2.453,2.453,0,0,0,.244,1.864,0,0,0,0,1,0,0v0l.008.014a2.3,2.3,0,0,0,.231.314Zm14.493-12.513a.879.879,0,0,0-.71-.362h-8.306l-.1.006a4.321,4.321,0,0,0-3.435,2.576l-.027.064-1.815,6.5-.135.479.064.492.135-.479.129.989-.135.481-.035.129a1.887,1.887,0,0,0,.194,1.409c.018.029.035.057.055.084a1.619,1.619,0,0,0,.232.27l.033.262a.907.907,0,0,1,0,.264,1.84,1.84,0,0,1-.184-.139.681.681,0,0,1-.039.217,1.833,1.833,0,0,0,.164.115,3.621,3.621,0,0,0,1.311.5.8.8,0,0,0,.137.018h.027c2.761.047,4.619.071,5.884.071,2.571,0,2.671-.1,2.872-.3.176-.178.283-.283,1.159-3.713a.877.877,0,0,0-.85-1.092h-6.255l1.153-4.1,6.646.086h.012a.875.875,0,0,0,.834-.608l1.11-3.429A.882.882,0,0,0,208.125,413.338Zm-8.979,1.2h7.326l-.664,2.049-6.666-.086a.877.877,0,0,0-.856.641l-1.541,5.483a.879.879,0,0,0,.844,1.114h6.276c-.223.85-.416,1.545-.539,1.954-1.157.033-4.459.006-7.56-.045a1.519,1.519,0,0,1-.971-.522.92.92,0,0,1-.1-.645l2.331-8.342A2.753,2.753,0,0,1,199.146,414.539Z" transform="translate(-193.113 -412.976)" fill="#871429"/>
            </g>
            <g id="Group_11494" data-name="Group 11494" transform="translate(0 0.195)">
              <path id="Path_12173" data-name="Path 12173" d="M208.551,414.894h-8.314a3.542,3.542,0,0,0-2.808,2.112.082.082,0,0,0,0,.014l-2.343,8.387s-.515,1.731,1.727,2.156l.015,0c.271,0,8.062.138,8.2,0s.8-2.761.955-3.353a.094.094,0,0,0-.093-.117h-7.162a.1.1,0,0,1-.091-.121l1.541-5.484a.094.094,0,0,1,.093-.069l7.173.092a.1.1,0,0,0,.091-.066l1.111-3.429A.1.1,0,0,0,208.551,414.894Z" transform="translate(-179.604 -414.307)" fill="#fff"/>
              <path id="Path_12174" data-name="Path 12174" d="M208.818,413.736a.684.684,0,0,0-.551-.281H199.96l-.076,0a4.15,4.15,0,0,0-3.275,2.46l-.022.053-1.937,6.929.129.989-.135.481-.035.129a1.887,1.887,0,0,0,.194,1.409c.018.029.035.057.055.084a1.62,1.62,0,0,0,.232.27l.033.262a.908.908,0,0,1,0,.264,3.371,3.371,0,0,0,1.29.5.689.689,0,0,0,.107.013h.022c2.757.047,4.608.069,5.858.069,2.517,0,2.6-.088,2.757-.241.137-.137.246-.244,1.108-3.623a.68.68,0,0,0-.661-.848h-6.513l1.262-4.5,6.8.088h.01a.68.68,0,0,0,.647-.473l1.112-3.429A.687.687,0,0,0,208.818,413.736Zm-9.493,3.744-1.54,5.483a.68.68,0,0,0,.655.866h6.528c-.278,1.065-.514,1.921-.645,2.341-1.049.043-4.57.012-7.728-.041a1.621,1.621,0,0,1-1.118-.618,1.107,1.107,0,0,1-.115-.8l2.333-8.355a2.945,2.945,0,0,1,2.29-1.731h7.607l-.792,2.443-6.811-.088A.674.674,0,0,0,199.325,417.481Z" transform="translate(-179.32 -413.455)" fill="#fff"/>
              <path id="Path_12175" data-name="Path 12175" d="M173,426.555l-.033-.262a1.618,1.618,0,0,1-.232-.27c-.02-.027-.037-.055-.055-.084a1.888,1.888,0,0,1-.194-1.409l.035-.129.135-.481-.129-.989-.135.479-.064-.492-.865-6.638-.018-.082c-.707-2.718-2.331-2.722-2.71-2.683H166.7a1.947,1.947,0,0,0-1.636.887L157.31,426.3a.68.68,0,0,0,.57,1.053h3.291a.678.678,0,0,0,.568-.307l.969-1.473,5.344.041.174,1.159a.678.678,0,0,0,.674.58h3.234a.681.681,0,0,0,.68-.67,1.837,1.837,0,0,0,.183.139A.907.907,0,0,0,173,426.555Zm-.651.3a.285.285,0,0,1-.217.1H168.9a.289.289,0,0,1-.287-.248l-.225-1.487-5.889-.047-1.086,1.652a.291.291,0,0,1-.242.131h-3.291a.291.291,0,0,1-.244-.45l7.753-11.894a1.56,1.56,0,0,1,1.309-.71h2.058c.2-.029,1.653-.144,2.314,2.39l.008.037.985,7.547.064.492-.014.049a2.264,2.264,0,0,0,.234,1.723c0,.008.01.014.014.022l.051.395.01.071A.28.28,0,0,1,172.352,426.86Z" transform="translate(-157.199 -413.486)" fill="#fff"/>
            </g>
            <g id="Group_11495" data-name="Group 11495" transform="translate(15.231 0.586)">
              <path id="Path_12176" data-name="Path 12176" d="M208.551,414.894h-8.314a3.542,3.542,0,0,0-2.808,2.112.082.082,0,0,0,0,.014l-2.343,8.387s-.515,1.731,1.727,2.156l.015,0c.271,0,8.062.138,8.2,0s.8-2.761.955-3.353a.094.094,0,0,0-.093-.117h-7.162a.1.1,0,0,1-.091-.121l1.541-5.484a.094.094,0,0,1,.093-.069l7.173.092a.1.1,0,0,0,.091-.066l1.111-3.429A.1.1,0,0,0,208.551,414.894Z" transform="translate(-194.835 -414.698)" fill="#003978"/>
              <path id="Path_12177" data-name="Path 12177" d="M208.5,414.533a.29.29,0,0,0-.234-.119H199.96l-.024,0a3.745,3.745,0,0,0-2.97,2.228l-2.187,7.814-.135.481-.035.129a1.887,1.887,0,0,0,.194,1.409c.018.029.035.057.055.084a1.62,1.62,0,0,0,.232.27,2.7,2.7,0,0,0,1.4.641.194.194,0,0,0,.058.006c2.722.047,4.547.064,5.772.064,2.436,0,2.507-.071,2.56-.121s.17-.17,1.006-3.443a.292.292,0,0,0-.283-.361h-7.028l1.485-5.282,7.1.092h0a.289.289,0,0,0,.275-.2l1.112-3.429A.3.3,0,0,0,208.5,414.533Zm-8.516,3.408a.285.285,0,0,0-.283.213l-1.542,5.483a.291.291,0,0,0,.28.369h7.033c-.412,1.612-.747,2.812-.864,3.105-.6.066-4.525.035-8.047-.024a2.015,2.015,0,0,1-1.423-.809,1.515,1.515,0,0,1-.154-1.1l2.339-8.377a3.345,3.345,0,0,1,2.64-2h8.166l-1.046,3.228Z" transform="translate(-194.551 -414.414)" fill="#8c1726"/>
            </g>
          </g>
        </g>
      </g>
    </g>
  </g>
</svg>